<svg width="150" height="50" viewBox="0 0 601 210" fill="none" xmlns="http://www.w3.org/2000/svg">
<path opacity="0.39" d="M0.0527344 154.409L68.5408 103.974C71.8294 101.468 75.4806 99.4782 79.3687 98.072L127.066 80.9551C133.511 78.6365 140.439 77.9897 147.202 79.0753C153.964 80.161 160.341 82.9435 165.737 87.1628L185.398 102.529C190.1 106.21 195.557 108.807 201.379 110.135C207.201 111.463 213.244 111.488 219.077 110.21C224.91 108.931 230.389 106.38 235.122 102.739C239.855 99.0985 243.726 94.4573 246.457 89.1472L258.669 65.3748C274.86 33.9192 320.746 36.8805 332.825 70.0967L343.908 100.626C355.702 133.12 400.143 136.896 417.25 106.854L422.043 98.4282C425.214 92.8626 429.658 88.1272 435.011 84.6099C440.365 81.0926 446.475 78.8934 452.842 78.1925C459.209 77.4916 465.651 78.3088 471.642 80.5773C477.632 82.8458 483 86.501 487.305 91.2436C491.614 95.9918 496.987 99.6504 502.984 101.919C508.98 104.188 515.43 105.002 521.802 104.295C528.174 103.588 534.288 101.38 539.642 97.8512C544.995 94.3228 549.435 89.5752 552.598 83.9979L600.194 0.102539V209.068H0.388562L0.0527344 154.409Z" fill="url(#paint0_linear)"/>
<defs>
<linearGradient id="paint0_linear" x1="300.118" y1="209.068" x2="300.118" y2="0.112727" gradientUnits="userSpaceOnUse">
<stop stop-color="#EB8485" stop-opacity="0"/>
<stop offset="1" stop-color="#F9D5A0"/>
</linearGradient>
</defs>
</svg>
